<svg width="488" height="152" viewBox="0 0 488 152" fill="none" xmlns="http://www.w3.org/2000/svg">
<path d="M204.04 118.44C197.88 118.44 192.28 117.2 187.24 114.72C182.2 112.24 178.2 108.52 175.24 103.56C172.28 98.6 170.8 92.28 170.8 84.6V33H187V84.72C187 88.88 187.68 92.4 189.04 95.28C190.4 98.08 192.4 100.16 195.04 101.52C197.68 102.88 200.8 103.56 204.4 103.56C208.08 103.56 211.2 102.88 213.76 101.52C216.32 100.16 218.28 98.08 219.64 95.28C221.08 92.4 221.8 88.88 221.8 84.72V33H238V84.6C238 92.28 236.44 98.6 233.32 103.56C230.28 108.52 226.2 112.24 221.08 114.72C215.96 117.2 210.28 118.44 204.04 118.44ZM245.758 141V57.48H259.318L260.278 67.92H260.758C262.278 65.44 264.078 63.32 266.158 61.56C268.318 59.8 270.758 58.44 273.478 57.48C276.278 56.52 279.318 56.04 282.598 56.04C288.278 56.04 293.198 57.4 297.358 60.12C301.518 62.76 304.758 66.44 307.078 71.16C309.398 75.88 310.558 81.24 310.558 87.24C310.558 93.24 309.398 98.6 307.078 103.32C304.758 108.04 301.478 111.76 297.238 114.48C292.998 117.12 287.958 118.44 282.118 118.44C277.478 118.44 273.438 117.56 269.998 115.8C266.638 113.96 263.958 111.8 261.958 109.32V141H245.758ZM277.918 105.24C281.198 105.24 284.038 104.48 286.438 102.96C288.918 101.44 290.798 99.36 292.078 96.72C293.438 94 294.118 90.88 294.118 87.36C294.118 83.76 293.438 80.64 292.078 78C290.798 75.28 288.918 73.16 286.438 71.64C284.038 70.12 281.198 69.36 277.918 69.36C274.718 69.36 271.878 70.12 269.398 71.64C266.918 73.16 264.998 75.28 263.638 78C262.278 80.64 261.598 83.76 261.598 87.36C261.598 90.88 262.278 94 263.638 96.72C264.998 99.36 266.918 101.44 269.398 102.96C271.878 104.48 274.718 105.24 277.918 105.24ZM316.6 117V33H332.8V117H316.6ZM369.833 118.44C363.753 118.44 358.353 117.16 353.633 114.6C348.993 112.04 345.353 108.44 342.713 103.8C340.073 99.16 338.753 93.84 338.753 87.84C338.753 81.6 340.033 76.12 342.593 71.4C345.233 66.6 348.873 62.84 353.513 60.12C358.233 57.4 363.673 56.04 369.833 56.04C375.833 56.04 381.073 57.32 385.553 59.88C390.033 62.44 393.553 65.96 396.113 70.44C398.673 74.84 399.953 79.84 399.953 85.44C399.953 86.24 399.913 87.16 399.833 88.2C399.833 89.16 399.793 90.16 399.713 91.2H350.273V81.24H383.513C383.273 77.48 381.873 74.48 379.313 72.24C376.833 70 373.713 68.88 369.953 68.88C367.153 68.88 364.593 69.52 362.273 70.8C359.953 72 358.113 73.88 356.753 76.44C355.393 78.92 354.713 82.08 354.713 85.92V89.4C354.713 92.68 355.353 95.52 356.633 97.92C357.913 100.24 359.673 102.04 361.913 103.32C364.233 104.6 366.833 105.24 369.713 105.24C372.673 105.24 375.153 104.6 377.153 103.32C379.153 101.96 380.673 100.24 381.713 98.16H398.153C397.033 101.92 395.153 105.36 392.513 108.48C389.873 111.52 386.633 113.96 382.793 115.8C378.953 117.56 374.633 118.44 369.833 118.44ZM418.309 117L399.109 57.48H416.149L430.189 106.32H430.789L444.949 57.48H461.869L442.669 117H418.309ZM465.494 117V33H481.694V117H465.494Z" fill="black"/>
<path d="M76 73.5C82.1257 73.5 87.8903 75.7885 96.4043 79.6768L100.23 81.4385H100.231L101.354 81.959L113.842 87.7305C122.256 91.6195 129.049 94.7634 133.867 97.75L134.804 98.3447C139.689 101.529 143.5 105.358 143.5 110.923C143.5 116.14 140.151 119.832 135.707 122.896L134.804 123.501C130.554 126.271 124.564 129.145 117.12 132.599L113.842 134.115L101.354 139.888L100.231 140.407H100.23C89.5301 145.357 83.0008 148.346 76 148.346C69.8744 148.346 64.1094 146.058 55.5957 142.17L51.7695 140.407H51.7686L50.6455 139.888L38.1582 134.115C29.7445 130.226 22.9508 127.083 18.1328 124.097L17.1953 123.501C12.3108 120.317 8.5 116.488 8.5 110.923C8.5001 105.706 11.8496 102.015 16.293 98.9502L17.1953 98.3447C21.4448 95.5745 27.4363 92.7019 34.8799 89.248L38.1582 87.7305L50.6455 81.959L51.7686 81.4385H51.7695C62.4695 76.4884 68.9993 73.5 76 73.5Z" fill="url(#paint0_linear_64_39)" stroke="url(#paint1_linear_64_39)" stroke-width="3"/>
<path d="M76 39C82.1257 39 87.8903 41.2885 96.4043 45.1768L100.23 46.9385H100.231L101.354 47.459L113.842 53.2305C122.256 57.1195 129.049 60.2634 133.867 63.25L134.804 63.8447C139.689 67.0292 143.5 70.8582 143.5 76.4229C143.5 81.6398 140.151 85.3315 135.707 88.3965L134.804 89.001C130.554 91.7713 124.564 94.6448 117.12 98.0986L113.842 99.6152L101.354 105.388L100.231 105.907H100.23C89.5301 110.857 83.0008 113.846 76 113.846C69.8744 113.846 64.1094 111.558 55.5957 107.67L51.7695 105.907H51.7686L50.6455 105.388L38.1582 99.6152C29.7445 95.7265 22.9508 92.5832 18.1328 89.5967L17.1953 89.001C12.3108 85.8165 8.5 81.9875 8.5 76.4229C8.5001 71.206 11.8496 67.5151 16.293 64.4502L17.1953 63.8447C21.4448 61.0745 27.4363 58.2019 34.8799 54.748L38.1582 53.2305L50.6455 47.459L51.7686 46.9385H51.7695C62.4695 41.9884 68.9993 39 76 39Z" fill="url(#paint2_linear_64_39)" stroke="url(#paint3_linear_64_39)" stroke-width="3"/>
<path d="M76 4.5C82.1257 4.5 87.8903 6.78851 96.4043 10.6768L100.23 12.4385H100.231L101.354 12.959L113.842 18.7305C122.256 22.6195 129.049 25.7634 133.867 28.75L134.804 29.3447C139.689 32.5292 143.5 36.3582 143.5 41.9229C143.5 47.1398 140.151 50.8315 135.707 53.8965L134.804 54.501C130.554 57.2713 124.564 60.1448 117.12 63.5986L113.842 65.1152L101.354 70.8877L100.231 71.4072H100.23C89.5301 76.3575 83.0008 79.3457 76 79.3457C69.8744 79.3457 64.1094 77.0581 55.5957 73.1699L51.7695 71.4072H51.7686L50.6455 70.8877L38.1582 65.1152C29.7445 61.2265 22.9508 58.0832 18.1328 55.0967L17.1953 54.501C12.3108 51.3165 8.5 47.4875 8.5 41.9229C8.5001 36.706 11.8496 33.0151 16.293 29.9502L17.1953 29.3447C21.4448 26.5745 27.4363 23.7019 34.8799 20.248L38.1582 18.7305L50.6455 12.959L51.7686 12.4385H51.7695C62.4695 7.48844 68.9993 4.5 76 4.5Z" fill="url(#paint4_linear_64_39)" stroke="url(#paint5_linear_64_39)" stroke-width="3"/>
<defs>
<linearGradient id="paint0_linear_64_39" x1="76" y1="81.9519" x2="86.9399" y2="148.49" gradientUnits="userSpaceOnUse">
<stop stop-color="#FEFDF9"/>
<stop offset="1" stop-color="#CABEA1"/>
</linearGradient>
<linearGradient id="paint1_linear_64_39" x1="76" y1="72" x2="76" y2="149.846" gradientUnits="userSpaceOnUse">
<stop stop-color="#FBF6E6"/>
<stop offset="1" stop-color="#887C5D"/>
</linearGradient>
<linearGradient id="paint2_linear_64_39" x1="76" y1="56" x2="76" y2="115.788" gradientUnits="userSpaceOnUse">
<stop stop-color="white"/>
<stop offset="1" stop-color="#DDB95E"/>
</linearGradient>
<linearGradient id="paint3_linear_64_39" x1="76" y1="37.5" x2="76" y2="115.346" gradientUnits="userSpaceOnUse">
<stop stop-color="#FCDC7F"/>
<stop offset="1" stop-color="#AC882B"/>
</linearGradient>
<linearGradient id="paint4_linear_64_39" x1="76" y1="16.2692" x2="86.4088" y2="79.5771" gradientUnits="userSpaceOnUse">
<stop stop-color="#FFE88D"/>
<stop offset="1" stop-color="#EFAE0A"/>
</linearGradient>
<linearGradient id="paint5_linear_64_39" x1="76" y1="3" x2="76" y2="80.8462" gradientUnits="userSpaceOnUse">
<stop stop-color="#F9D67D"/>
<stop offset="1" stop-color="#AE8314"/>
</linearGradient>
</defs>
</svg>
