<svg xmlns="http://www.w3.org/2000/svg" fill="none" viewBox="0 0 152 152"><path fill="url(#a)" stroke="url(#b)" stroke-width="3" d="M76 73.5c6.126 0 11.89 2.288 20.404 6.177l3.826 1.761h.001l1.123.521 12.488 5.772c8.414 3.889 15.207 7.032 20.025 10.019l.937.595c4.885 3.184 8.696 7.013 8.696 12.578 0 5.217-3.349 8.909-7.793 11.973l-.903.605c-4.25 2.77-10.24 5.644-17.684 9.098l-3.278 1.516-12.488 5.773-1.123.519h-.001c-10.7 4.95-17.23 7.939-24.23 7.939-6.126 0-11.89-2.288-20.404-6.176l-3.826-1.763h-.001l-1.123-.519-12.488-5.773c-8.414-3.889-15.207-7.032-20.025-10.018l-.938-.596c-4.884-3.184-8.695-7.013-8.695-12.578 0-5.217 3.35-8.908 7.793-11.973l.902-.605c4.25-2.77 10.241-5.643 17.685-9.097l3.278-1.517 12.487-5.772 1.124-.52C62.47 76.489 69 73.5 76 73.5Z"/><path fill="url(#c)" stroke="url(#d)" stroke-width="3" d="M76 39c6.126 0 11.89 2.288 20.404 6.177l3.826 1.761h.001l1.123.521 12.488 5.771c8.414 3.89 15.207 7.033 20.025 10.02l.937.595c4.885 3.184 8.696 7.013 8.696 12.578 0 5.217-3.349 8.909-7.793 11.974l-.903.604c-4.25 2.77-10.24 5.644-17.684 9.098l-3.278 1.516-12.488 5.773-1.123.519h-.001c-10.7 4.95-17.23 7.939-24.23 7.939-6.126 0-11.89-2.288-20.404-6.176l-3.826-1.763h-.001l-1.123-.519-12.488-5.773c-8.414-3.888-15.207-7.032-20.025-10.018L17.195 89C12.311 85.817 8.5 81.987 8.5 76.423c0-5.217 3.35-8.908 7.793-11.973l.902-.605c4.25-2.77 10.241-5.643 17.685-9.097l3.278-1.517 12.487-5.772 1.124-.52C62.47 41.988 69 39 76 39Z"/><path fill="url(#e)" stroke="url(#f)" stroke-width="3" d="M76 4.5c6.126 0 11.89 2.289 20.404 6.177l3.826 1.761h.001l1.123.521 12.488 5.771c8.414 3.89 15.207 7.033 20.025 10.02l.937.595c4.885 3.184 8.696 7.013 8.696 12.578 0 5.217-3.349 8.908-7.793 11.974l-.903.604c-4.25 2.77-10.24 5.644-17.684 9.098l-3.278 1.516-12.488 5.773-1.123.52h-.001C89.53 76.357 83 79.345 76 79.345c-6.126 0-11.89-2.288-20.404-6.176l-3.826-1.763h-.001l-1.123-.52-12.488-5.772c-8.414-3.888-15.207-7.032-20.025-10.018l-.938-.596C12.311 51.317 8.5 47.487 8.5 41.923c0-5.217 3.35-8.908 7.793-11.973l.902-.605c4.25-2.77 10.241-5.643 17.685-9.097l3.278-1.518 12.487-5.771 1.124-.52C62.47 7.488 69 4.5 76 4.5Z"/><defs><linearGradient id="a" x1="76" x2="86.94" y1="81.952" y2="148.49" gradientUnits="userSpaceOnUse"><stop stop-color="#FEFDF9"/><stop offset="1" stop-color="#CABEA1"/></linearGradient><linearGradient id="b" x1="76" x2="76" y1="72" y2="149.846" gradientUnits="userSpaceOnUse"><stop stop-color="#FBF6E6"/><stop offset="1" stop-color="#887C5D"/></linearGradient><linearGradient id="c" x1="76" x2="76" y1="56" y2="115.788" gradientUnits="userSpaceOnUse"><stop stop-color="#fff"/><stop offset="1" stop-color="#DDB95E"/></linearGradient><linearGradient id="d" x1="76" x2="76" y1="37.5" y2="115.346" gradientUnits="userSpaceOnUse"><stop stop-color="#FCDC7F"/><stop offset="1" stop-color="#AC882B"/></linearGradient><linearGradient id="e" x1="76" x2="86.409" y1="16.269" y2="79.577" gradientUnits="userSpaceOnUse"><stop stop-color="#FFE88D"/><stop offset="1" stop-color="#EFAE0A"/></linearGradient><linearGradient id="f" x1="76" x2="76" y1="3" y2="80.846" gradientUnits="userSpaceOnUse"><stop stop-color="#F9D67D"/><stop offset="1" stop-color="#AE8314"/></linearGradient></defs></svg>