<svg xmlns="http://www.w3.org/2000/svg" fill="none" viewBox="0 0 488 152"><path fill="#000" d="M204.04 118.44c-6.16 0-11.76-1.24-16.8-3.72-5.04-2.48-9.04-6.2-12-11.16-2.96-4.96-4.44-11.28-4.44-18.96V33H187v51.72c0 4.16.68 7.68 2.04 10.56 1.36 2.8 3.36 4.88 6 6.24 2.64 1.36 5.76 2.04 9.36 2.04 3.68 0 6.8-.68 9.36-2.04 2.56-1.36 4.52-3.44 5.88-6.24 1.44-2.88 2.16-6.4 2.16-10.56V33H238v51.6c0 7.68-1.56 14-4.68 18.96-3.04 4.96-7.12 8.68-12.24 11.16-5.12 2.48-10.8 3.72-17.04 3.72ZM245.758 141V57.48h13.56l.96 10.44h.48c1.52-2.48 3.32-4.6 5.4-6.36 2.16-1.76 4.6-3.12 7.32-4.08 2.8-.96 5.84-1.44 9.12-1.44 5.68 0 10.6 1.36 14.76 4.08 4.16 2.64 7.4 6.32 9.72 11.04 2.32 4.72 3.48 10.08 3.48 16.08 0 6-1.16 11.36-3.48 16.08-2.32 4.72-5.6 8.44-9.84 11.16-4.24 2.64-9.28 3.96-15.12 3.96-4.64 0-8.68-.88-12.12-2.64-3.36-1.84-6.04-4-8.04-6.48V141h-16.2Zm32.16-35.76c3.28 0 6.12-.76 8.52-2.28 2.48-1.52 4.36-3.6 5.64-6.24 1.36-2.72 2.04-5.84 2.04-9.36 0-3.6-.68-6.72-2.04-9.36-1.28-2.72-3.16-4.84-5.64-6.36-2.4-1.52-5.24-2.28-8.52-2.28-3.2 0-6.04.76-8.52 2.28-2.48 1.52-4.4 3.64-5.76 6.36-1.36 2.64-2.04 5.76-2.04 9.36 0 3.52.68 6.64 2.04 9.36 1.36 2.64 3.28 4.72 5.76 6.24 2.48 1.52 5.32 2.28 8.52 2.28ZM316.6 117V33h16.2v84h-16.2Zm53.233 1.44c-6.08 0-11.48-1.28-16.2-3.84-4.64-2.56-8.28-6.16-10.92-10.8-2.64-4.64-3.96-9.96-3.96-15.96 0-6.24 1.28-11.72 3.84-16.44 2.64-4.8 6.28-8.56 10.92-11.28 4.72-2.72 10.16-4.08 16.32-4.08 6 0 11.24 1.28 15.72 3.84 4.48 2.56 8 6.08 10.56 10.56 2.56 4.4 3.84 9.4 3.84 15 0 .8-.04 1.72-.12 2.76 0 .96-.04 1.96-.12 3h-49.44v-9.96h33.24c-.24-3.76-1.64-6.76-4.2-9-2.48-2.24-5.6-3.36-9.36-3.36-2.8 0-5.36.64-7.68 1.92-2.32 1.2-4.16 3.08-5.52 5.64-1.36 2.48-2.04 5.64-2.04 9.48v3.48c0 3.28.64 6.12 1.92 8.52 1.28 2.32 3.04 4.12 5.28 5.4 2.32 1.28 4.92 1.92 7.8 1.92 2.96 0 5.44-.64 7.44-1.92 2-1.36 3.52-3.08 4.56-5.16h16.44c-1.12 3.76-3 7.2-5.64 10.32-2.64 3.04-5.88 5.48-9.72 7.32-3.84 1.76-8.16 2.64-12.96 2.64Zm48.476-1.44-19.2-59.52h17.04l14.04 48.84h.6l14.16-48.84h16.92l-19.2 59.52h-24.36Zm47.185 0V33h16.2v84h-16.2Z"/><path fill="url(#a)" stroke="url(#b)" stroke-width="3" d="M76 73.5c6.126 0 11.89 2.288 20.404 6.177l3.826 1.761h.001l1.123.521 12.488 5.772c8.414 3.889 15.207 7.032 20.025 10.019l.937.595c4.885 3.184 8.696 7.013 8.696 12.578 0 5.217-3.349 8.909-7.793 11.973l-.903.605c-4.25 2.77-10.24 5.644-17.684 9.098l-3.278 1.516-12.488 5.773-1.123.519h-.001c-10.7 4.95-17.23 7.939-24.23 7.939-6.126 0-11.89-2.288-20.404-6.176l-3.826-1.763h-.001l-1.123-.519-12.488-5.773c-8.414-3.889-15.207-7.032-20.025-10.018l-.938-.596c-4.884-3.184-8.695-7.013-8.695-12.578 0-5.217 3.35-8.908 7.793-11.973l.902-.605c4.25-2.77 10.241-5.643 17.685-9.097l3.278-1.517 12.487-5.772 1.124-.52C62.47 76.489 69 73.5 76 73.5Z"/><path fill="url(#c)" stroke="url(#d)" stroke-width="3" d="M76 39c6.126 0 11.89 2.288 20.404 6.177l3.826 1.761h.001l1.123.521 12.488 5.771c8.414 3.89 15.207 7.033 20.025 10.02l.937.595c4.885 3.184 8.696 7.013 8.696 12.578 0 5.217-3.349 8.909-7.793 11.974l-.903.604c-4.25 2.77-10.24 5.644-17.684 9.098l-3.278 1.516-12.488 5.773-1.123.519h-.001c-10.7 4.95-17.23 7.939-24.23 7.939-6.126 0-11.89-2.288-20.404-6.176l-3.826-1.763h-.001l-1.123-.519-12.488-5.773c-8.414-3.888-15.207-7.032-20.025-10.018L17.195 89C12.311 85.817 8.5 81.987 8.5 76.423c0-5.217 3.35-8.908 7.793-11.973l.902-.605c4.25-2.77 10.241-5.643 17.685-9.097l3.278-1.517 12.487-5.772 1.124-.52C62.47 41.988 69 39 76 39Z"/><path fill="url(#e)" stroke="url(#f)" stroke-width="3" d="M76 4.5c6.126 0 11.89 2.289 20.404 6.177l3.826 1.761h.001l1.123.521 12.488 5.771c8.414 3.89 15.207 7.033 20.025 10.02l.937.595c4.885 3.184 8.696 7.013 8.696 12.578 0 5.217-3.349 8.908-7.793 11.974l-.903.604c-4.25 2.77-10.24 5.644-17.684 9.098l-3.278 1.516-12.488 5.773-1.123.52h-.001C89.53 76.357 83 79.345 76 79.345c-6.126 0-11.89-2.288-20.404-6.176l-3.826-1.763h-.001l-1.123-.52-12.488-5.772c-8.414-3.888-15.207-7.032-20.025-10.018l-.938-.596C12.311 51.317 8.5 47.487 8.5 41.923c0-5.217 3.35-8.908 7.793-11.973l.902-.605c4.25-2.77 10.241-5.643 17.685-9.097l3.278-1.518 12.487-5.771 1.124-.52C62.47 7.488 69 4.5 76 4.5Z"/><defs><linearGradient id="a" x1="76" x2="86.94" y1="81.952" y2="148.49" gradientUnits="userSpaceOnUse"><stop stop-color="#FEFDF9"/><stop offset="1" stop-color="#CABEA1"/></linearGradient><linearGradient id="b" x1="76" x2="76" y1="72" y2="149.846" gradientUnits="userSpaceOnUse"><stop stop-color="#FBF6E6"/><stop offset="1" stop-color="#887C5D"/></linearGradient><linearGradient id="c" x1="76" x2="76" y1="56" y2="115.788" gradientUnits="userSpaceOnUse"><stop stop-color="#fff"/><stop offset="1" stop-color="#DDB95E"/></linearGradient><linearGradient id="d" x1="76" x2="76" y1="37.5" y2="115.346" gradientUnits="userSpaceOnUse"><stop stop-color="#FCDC7F"/><stop offset="1" stop-color="#AC882B"/></linearGradient><linearGradient id="e" x1="76" x2="86.409" y1="16.269" y2="79.577" gradientUnits="userSpaceOnUse"><stop stop-color="#FFE88D"/><stop offset="1" stop-color="#EFAE0A"/></linearGradient><linearGradient id="f" x1="76" x2="76" y1="3" y2="80.846" gradientUnits="userSpaceOnUse"><stop stop-color="#F9D67D"/><stop offset="1" stop-color="#AE8314"/></linearGradient></defs></svg>