<svg width="152" height="152" viewBox="0 0 152 152" fill="none" xmlns="http://www.w3.org/2000/svg">
<path d="M76 73.5C82.1257 73.5 87.8903 75.7885 96.4043 79.6768L100.23 81.4385H100.231L101.354 81.959L113.842 87.7305C122.256 91.6195 129.049 94.7634 133.867 97.75L134.804 98.3447C139.689 101.529 143.5 105.358 143.5 110.923C143.5 116.14 140.151 119.832 135.707 122.896L134.804 123.501C130.554 126.271 124.564 129.145 117.12 132.599L113.842 134.115L101.354 139.888L100.231 140.407H100.23C89.5301 145.357 83.0008 148.346 76 148.346C69.8744 148.346 64.1094 146.058 55.5957 142.17L51.7695 140.407H51.7686L50.6455 139.888L38.1582 134.115C29.7445 130.226 22.9508 127.083 18.1328 124.097L17.1953 123.501C12.3108 120.317 8.5 116.488 8.5 110.923C8.5001 105.706 11.8496 102.015 16.293 98.9502L17.1953 98.3447C21.4448 95.5745 27.4363 92.7019 34.8799 89.248L38.1582 87.7305L50.6455 81.959L51.7686 81.4385H51.7695C62.4695 76.4884 68.9993 73.5 76 73.5Z" fill="url(#paint0_linear_64_21)" stroke="url(#paint1_linear_64_21)" stroke-width="3"/>
<path d="M76 39C82.1257 39 87.8903 41.2885 96.4043 45.1768L100.23 46.9385H100.231L101.354 47.459L113.842 53.2305C122.256 57.1195 129.049 60.2634 133.867 63.25L134.804 63.8447C139.689 67.0292 143.5 70.8582 143.5 76.4229C143.5 81.6398 140.151 85.3315 135.707 88.3965L134.804 89.001C130.554 91.7713 124.564 94.6448 117.12 98.0986L113.842 99.6152L101.354 105.388L100.231 105.907H100.23C89.5301 110.857 83.0008 113.846 76 113.846C69.8744 113.846 64.1094 111.558 55.5957 107.67L51.7695 105.907H51.7686L50.6455 105.388L38.1582 99.6152C29.7445 95.7265 22.9508 92.5832 18.1328 89.5967L17.1953 89.001C12.3108 85.8165 8.5 81.9875 8.5 76.4229C8.5001 71.206 11.8496 67.5151 16.293 64.4502L17.1953 63.8447C21.4448 61.0745 27.4363 58.2019 34.8799 54.748L38.1582 53.2305L50.6455 47.459L51.7686 46.9385H51.7695C62.4695 41.9884 68.9993 39 76 39Z" fill="url(#paint2_linear_64_21)" stroke="url(#paint3_linear_64_21)" stroke-width="3"/>
<path d="M76 4.5C82.1257 4.5 87.8903 6.78851 96.4043 10.6768L100.23 12.4385H100.231L101.354 12.959L113.842 18.7305C122.256 22.6195 129.049 25.7634 133.867 28.75L134.804 29.3447C139.689 32.5292 143.5 36.3582 143.5 41.9229C143.5 47.1398 140.151 50.8315 135.707 53.8965L134.804 54.501C130.554 57.2713 124.564 60.1448 117.12 63.5986L113.842 65.1152L101.354 70.8877L100.231 71.4072H100.23C89.5301 76.3575 83.0008 79.3457 76 79.3457C69.8744 79.3457 64.1094 77.0581 55.5957 73.1699L51.7695 71.4072H51.7686L50.6455 70.8877L38.1582 65.1152C29.7445 61.2265 22.9508 58.0832 18.1328 55.0967L17.1953 54.501C12.3108 51.3165 8.5 47.4875 8.5 41.9229C8.5001 36.706 11.8496 33.0151 16.293 29.9502L17.1953 29.3447C21.4448 26.5745 27.4363 23.7019 34.8799 20.248L38.1582 18.7305L50.6455 12.959L51.7686 12.4385H51.7695C62.4695 7.48844 68.9993 4.5 76 4.5Z" fill="url(#paint4_linear_64_21)" stroke="url(#paint5_linear_64_21)" stroke-width="3"/>
<defs>
<linearGradient id="paint0_linear_64_21" x1="76" y1="81.9519" x2="86.9399" y2="148.49" gradientUnits="userSpaceOnUse">
<stop stop-color="#FEFDF9"/>
<stop offset="1" stop-color="#CABEA1"/>
</linearGradient>
<linearGradient id="paint1_linear_64_21" x1="76" y1="72" x2="76" y2="149.846" gradientUnits="userSpaceOnUse">
<stop stop-color="#FBF6E6"/>
<stop offset="1" stop-color="#887C5D"/>
</linearGradient>
<linearGradient id="paint2_linear_64_21" x1="76" y1="56" x2="76" y2="115.788" gradientUnits="userSpaceOnUse">
<stop stop-color="white"/>
<stop offset="1" stop-color="#DDB95E"/>
</linearGradient>
<linearGradient id="paint3_linear_64_21" x1="76" y1="37.5" x2="76" y2="115.346" gradientUnits="userSpaceOnUse">
<stop stop-color="#FCDC7F"/>
<stop offset="1" stop-color="#AC882B"/>
</linearGradient>
<linearGradient id="paint4_linear_64_21" x1="76" y1="16.2692" x2="86.4088" y2="79.5771" gradientUnits="userSpaceOnUse">
<stop stop-color="#FFE88D"/>
<stop offset="1" stop-color="#EFAE0A"/>
</linearGradient>
<linearGradient id="paint5_linear_64_21" x1="76" y1="3" x2="76" y2="80.8462" gradientUnits="userSpaceOnUse">
<stop stop-color="#F9D67D"/>
<stop offset="1" stop-color="#AE8314"/>
</linearGradient>
</defs>
</svg>
