<svg xmlns="http://www.w3.org/2000/svg" width="488" height="152" fill="none"><path fill="#fff" d="M204.04 118.44c-6.16 0-11.76-1.24-16.8-3.72-5.04-2.48-9.04-6.2-12-11.16-2.96-4.96-4.44-11.28-4.44-18.96V33H187v51.72c0 4.16.68 7.68 2.04 10.56 1.36 2.8 3.36 4.88 6 6.24 2.64 1.36 5.76 2.04 9.36 2.04 3.68 0 6.8-.68 9.36-2.04 2.56-1.36 4.52-3.44 5.88-6.24 1.44-2.88 2.16-6.4 2.16-10.56V33H238v51.6c0 7.68-1.56 14-4.68 18.96-3.04 4.96-7.12 8.68-12.24 11.16-5.12 2.48-10.8 3.72-17.04 3.72ZM245.758 141V57.48h13.56l.96 10.44h.48c1.52-2.48 3.32-4.6 5.4-6.36 2.16-1.76 4.6-3.12 7.32-4.08 2.8-.96 5.84-1.44 9.12-1.44 5.68 0 10.6 1.36 14.76 4.08 4.16 2.64 7.4 6.32 9.72 11.04 2.32 4.72 3.48 10.08 3.48 16.08 0 6-1.16 11.36-3.48 16.08-2.32 4.72-5.6 8.44-9.84 11.16-4.24 2.64-9.28 3.96-15.12 3.96-4.64 0-8.68-.88-12.12-2.64-3.36-1.84-6.04-4-8.04-6.48V141h-16.2Zm32.16-35.76c3.28 0 6.12-.76 8.52-2.28 2.48-1.52 4.36-3.6 5.64-6.24 1.36-2.72 2.04-5.84 2.04-9.36 0-3.6-.68-6.72-2.04-9.36-1.28-2.72-3.16-4.84-5.64-6.36-2.4-1.52-5.24-2.28-8.52-2.28-3.2 0-6.04.76-8.52 2.28-2.48 1.52-4.4 3.64-5.76 6.36-1.36 2.64-2.04 5.76-2.04 9.36 0 3.52.68 6.64 2.04 9.36 1.36 2.64 3.28 4.72 5.76 6.24 2.48 1.52 5.32 2.28 8.52 2.28ZM316.6 117V33h16.2v84h-16.2ZM369.833 118.44c-6.08 0-11.48-1.28-16.2-3.84-4.64-2.56-8.28-6.16-10.92-10.8-2.64-4.64-3.96-9.96-3.96-15.96 0-6.24 1.28-11.72 3.84-16.44 2.64-4.8 6.28-8.56 10.92-11.28 4.72-2.72 10.16-4.08 16.32-4.08 6 0 11.24 1.28 15.72 3.84 4.48 2.56 8 6.08 10.56 10.56 2.56 4.4 3.84 9.4 3.84 15 0 .8-.04 1.72-.12 2.76 0 .96-.04 1.96-.12 3h-49.44v-9.96h33.24c-.24-3.76-1.64-6.76-4.2-9-2.48-2.24-5.6-3.36-9.36-3.36-2.8 0-5.36.64-7.68 1.92-2.32 1.2-4.16 3.08-5.52 5.64-1.36 2.48-2.04 5.64-2.04 9.48v3.48c0 3.28.64 6.12 1.92 8.52 1.28 2.32 3.04 4.12 5.28 5.4 2.32 1.28 4.92 1.92 7.8 1.92 2.96 0 5.44-.64 7.44-1.92 2-1.36 3.52-3.08 4.56-5.16h16.44c-1.12 3.76-3 7.2-5.64 10.32-2.64 3.04-5.88 5.48-9.72 7.32-3.84 1.76-8.16 2.64-12.96 2.64ZM418.309 117l-19.2-59.52h17.04l14.04 48.84h.6l14.16-48.84h16.92l-19.2 59.52h-24.36ZM465.494 117V33h16.2v84h-16.2Z"/><path fill="url(#a)" d="M51.14 80.077C61.741 75.173 68.6 72 76 72c7.4 0 14.258 3.172 24.861 8.077l1.123.52 12.487 5.772c8.932 4.128 16.183 7.48 21.152 10.72 4.972 3.241 9.377 7.461 9.377 13.834 0 6.373-4.405 10.593-9.377 13.835-4.969 3.24-12.22 6.591-21.152 10.719l-12.487 5.772-1.123.52c-10.603 4.905-17.46 8.077-24.861 8.077-7.4 0-14.258-3.172-24.86-8.077l-1.124-.52-12.487-5.772c-8.932-4.128-16.183-7.479-21.152-10.719C11.405 121.516 7 117.296 7 110.923c0-6.373 4.405-10.593 9.377-13.835 4.97-3.24 12.22-6.59 21.152-10.72l12.487-5.771 1.123-.52Z"/><path fill="url(#b)" d="M142 110.923c0-4.459-2.828-7.759-7.135-10.732l-.881-.59c-4.15-2.705-10.037-5.531-17.485-8.988l-16.897-7.812-.001-.001C88.802 77.805 82.6 75 76 75c-6.601 0-12.803 2.805-23.6 7.8h-.002l-13.61 6.292c-8.454 3.907-15.145 7.007-19.857 9.927l-.916.583C13.217 102.729 10 106.167 10 110.923c0 4.756 3.217 8.194 8.014 11.321 4.743 3.093 11.757 6.342 20.774 10.51l13.61 6.292 3.844 1.769c8.512 3.884 13.982 6.031 19.758 6.031v3l-.692-.009c-7.14-.191-13.897-3.317-24.168-8.068l-13.61-6.291c-8.375-3.871-15.27-7.059-20.195-10.112l-.958-.608c-4.817-3.14-9.101-7.199-9.364-13.243L7 110.923c0-5.975 3.871-10.057 8.452-13.215l.925-.62c4.348-2.834 10.443-5.755 17.883-9.206l16.88-7.805C61.742 75.172 68.6 72 76 72c7.4 0 14.258 3.172 24.86 8.077l13.611 6.292c8.931 4.129 16.183 7.48 21.152 10.72 4.972 3.241 9.377 7.461 9.377 13.834l-.013.592c-.263 6.044-4.547 10.103-9.364 13.243l-.958.608c-4.924 3.053-11.82 6.241-20.194 10.112l-13.611 6.291c-10.602 4.905-17.46 8.077-24.86 8.077v-3c6.601 0 12.802-2.805 23.6-7.8l.002-.001 16.897-7.813c7.448-3.456 13.335-6.281 17.485-8.987 4.798-3.127 8.016-6.566 8.016-11.322Z"/><path fill="url(#c)" d="M51.14 45.577C61.741 40.673 68.6 37.5 76 37.5c7.4 0 14.258 3.172 24.861 8.077l1.123.52 12.487 5.772c8.932 4.128 16.183 7.48 21.152 10.72 4.972 3.24 9.377 7.46 9.377 13.834 0 6.373-4.405 10.593-9.377 13.835-4.969 3.24-12.22 6.59-21.152 10.719l-12.487 5.772-1.123.52c-10.603 4.905-17.46 8.077-24.861 8.077-7.4 0-14.258-3.172-24.86-8.077l-1.124-.52-12.487-5.772c-8.932-4.128-16.183-7.48-21.152-10.72C11.405 87.018 7 82.798 7 76.424c0-6.373 4.405-10.593 9.377-13.835 4.97-3.24 12.22-6.59 21.152-10.72l12.487-5.771 1.123-.52Z"/><path fill="url(#d)" d="M142 76.423c0-4.46-2.828-7.76-7.135-10.732l-.881-.59c-4.15-2.705-10.037-5.531-17.485-8.988l-16.897-7.812-.001-.001c-10.799-4.995-17-7.8-23.601-7.8-6.601 0-12.803 2.804-23.6 7.8h-.002l-13.61 6.292c-8.454 3.907-15.145 7.007-19.857 9.927l-.916.583C13.217 68.229 10 71.667 10 76.422c0 4.757 3.217 8.195 8.014 11.322 4.743 3.093 11.757 6.342 20.774 10.51l13.61 6.292 3.844 1.769c8.512 3.884 13.982 6.031 19.758 6.031v3l-.692-.009c-7.14-.191-13.897-3.317-24.168-8.068l-13.61-6.291c-8.375-3.87-15.27-7.059-20.195-10.112l-.958-.608c-4.817-3.14-9.101-7.199-9.364-13.243L7 76.423c0-5.975 3.871-10.057 8.452-13.215l.925-.62c4.348-2.834 10.443-5.755 17.883-9.206l16.88-7.805C61.742 40.672 68.6 37.5 76 37.5c7.4 0 14.258 3.172 24.86 8.077l13.611 6.292c8.931 4.129 16.183 7.48 21.152 10.72 4.972 3.241 9.377 7.46 9.377 13.834l-.013.592c-.263 6.044-4.547 10.103-9.364 13.243l-.958.608c-4.924 3.053-11.82 6.241-20.194 10.112l-13.611 6.291c-10.602 4.905-17.46 8.077-24.86 8.077v-3c6.601 0 12.802-2.805 23.6-7.8l.002-.001 16.897-7.813c7.448-3.456 13.335-6.281 17.485-8.987C138.782 84.618 142 81.18 142 76.423Z"/><path fill="url(#e)" d="M51.14 11.077C61.741 6.173 68.6 3 76 3c7.4 0 14.258 3.173 24.861 8.077l1.123.52 12.487 5.772c8.932 4.128 16.183 7.48 21.152 10.72 4.972 3.24 9.377 7.46 9.377 13.834 0 6.373-4.405 10.593-9.377 13.835-4.969 3.24-12.22 6.59-21.152 10.72l-12.487 5.771-1.123.52C90.258 77.674 83.401 80.846 76 80.846c-7.4 0-14.258-3.172-24.86-8.077l-1.124-.52-12.487-5.772c-8.932-4.128-16.183-7.48-21.152-10.72C11.405 52.518 7 48.298 7 41.924c0-6.373 4.405-10.593 9.377-13.835 4.97-3.24 12.22-6.59 21.152-10.72l12.487-5.771 1.123-.52Z"/><path fill="url(#f)" d="M142 41.923c0-4.46-2.828-7.76-7.135-10.732l-.881-.59c-4.15-2.705-10.037-5.531-17.485-8.988l-16.897-7.812-.001-.001C88.802 8.804 82.6 6 76 6c-6.601 0-12.803 2.805-23.6 7.8h-.002l-13.61 6.292c-8.454 3.907-15.145 7.007-19.857 9.928l-.916.582C13.217 33.729 10 37.167 10 41.922c0 4.757 3.217 8.195 8.014 11.322 4.743 3.093 11.757 6.342 20.774 10.51l13.61 6.292 3.844 1.77c8.512 3.883 13.982 6.03 19.758 6.03v3l-.692-.01c-7.14-.19-13.897-3.316-24.168-8.067l-13.61-6.291c-8.375-3.87-15.27-7.059-20.195-10.112l-.958-.608c-4.817-3.14-9.101-7.199-9.364-13.243L7 41.923c0-5.975 3.871-10.057 8.452-13.215l.925-.62c4.348-2.834 10.443-5.755 17.883-9.206l16.88-7.805C61.742 6.172 68.6 3 76 3c7.4 0 14.258 3.172 24.86 8.077l13.611 6.292c8.931 4.129 16.183 7.48 21.152 10.72 4.972 3.241 9.377 7.46 9.377 13.834l-.013.592c-.263 6.044-4.547 10.103-9.364 13.243l-.958.608c-4.924 3.053-11.82 6.241-20.194 10.112l-13.611 6.29C90.258 77.675 83.4 80.847 76 80.847v-3c6.601 0 12.802-2.805 23.6-7.8l.002-.001 16.897-7.813c7.448-3.456 13.335-6.281 17.485-8.987C138.782 50.118 142 46.68 142 41.923Z"/><defs><linearGradient id="a" x1="76" x2="86.94" y1="81.952" y2="148.49" gradientUnits="userSpaceOnUse"><stop stop-color="#FEFDF9"/><stop offset="1" stop-color="#CABEA1"/></linearGradient><linearGradient id="b" x1="76" x2="76" y1="72" y2="149.846" gradientUnits="userSpaceOnUse"><stop stop-color="#FBF6E6"/><stop offset="1" stop-color="#887C5D"/></linearGradient><linearGradient id="c" x1="76" x2="76" y1="56" y2="115.788" gradientUnits="userSpaceOnUse"><stop stop-color="#fff"/><stop offset="1" stop-color="#DDB95E"/></linearGradient><linearGradient id="d" x1="76" x2="76" y1="37.5" y2="115.346" gradientUnits="userSpaceOnUse"><stop stop-color="#FCDC7F"/><stop offset="1" stop-color="#AC882B"/></linearGradient><linearGradient id="e" x1="76" x2="86.409" y1="16.269" y2="79.577" gradientUnits="userSpaceOnUse"><stop stop-color="#FFE88D"/><stop offset="1" stop-color="#EFAE0A"/></linearGradient><linearGradient id="f" x1="76" x2="76" y1="3" y2="80.846" gradientUnits="userSpaceOnUse"><stop stop-color="#F9D67D"/><stop offset="1" stop-color="#AE8314"/></linearGradient></defs></svg>